# xmcd CD database file
#
# Track frame offsets:
#	150
#	12244
#	26539
#	38623
#	50123
#	61124
#	72252
#	83504
#	94795
#	105415
#
# Disc length: 1552 seconds
#
# Revision: 0
# Processed by: cddbd v1.5.2PL0 Copyright (c) Steve Scherf et al.
# Submitted via: CDex 1.70beta2
#
DISCID=70060e0a
DTITLE=Loretta Lynn - Out Of My Head And Back In My Bed
DYEAR=1977
DGENRE=Country
TTITLE0=Out Of My Head And Back In My Bed
TTITLE1=Three Riddles
TTITLE2=Spring Fever
TTITLE3=The Dead Is A 'Risin'
TTITLE4=Old Rooster
TTITLE5=Black-Eyed Peas And Blue-Eyed Babies
TTITLE6=You Snap Your Fingers (And I'm Back In Your Hands)
TTITLE7=His Lovin' Told Me He Was Gone
TTITLE8=I'm Gonna Do Somebody Right
TTITLE9=God Bless The Children
EXTD=YEAR: 1977
EXTT0=
EXTT1=
EXTT2=
EXTT3=
EXTT4=
EXTT5=
EXTT6=
EXTT7=
EXTT8=
EXTT9=
PLAYORDER=
